<mxfile host="65bd71144e">
    <diagram id="vaZRgxmbpaaro0cL7QuF" name="第 1 页">
        <mxGraphModel dx="1014" dy="619" grid="0" gridSize="10" guides="1" tooltips="1" connect="1" arrows="1" fold="1" page="0" pageScale="1" pageWidth="827" pageHeight="1169" math="0" shadow="0">
            <root>
                <mxCell id="0"/>
                <mxCell id="1" parent="0"/>
                <mxCell id="10" value="" style="edgeStyle=none;html=1;rounded=0;" parent="1" source="2" target="4" edge="1">
                    <mxGeometry relative="1" as="geometry"/>
                </mxCell>
                <mxCell id="2" value="&lt;div&gt;&lt;span style=&quot;background-color: initial;&quot;&gt;mov&amp;nbsp; &amp;nbsp; 0xc(%esp,%esi,4),%eax&lt;/span&gt;&lt;br&gt;&lt;/div&gt;&lt;div&gt;sub&amp;nbsp; &amp;nbsp; $0x1,%eax&lt;/div&gt;" style="rounded=0;whiteSpace=wrap;html=1;align=left;" parent="1" vertex="1">
                    <mxGeometry x="160" y="60" width="175" height="30" as="geometry"/>
                </mxCell>
                <mxCell id="6" style="edgeStyle=none;html=1;exitX=0;exitY=0.5;exitDx=0;exitDy=0;rounded=0;" parent="1" source="4" target="5" edge="1">
                    <mxGeometry relative="1" as="geometry"/>
                </mxCell>
                <mxCell id="12" value="" style="edgeStyle=none;html=1;rounded=0;" parent="1" source="4" target="11" edge="1">
                    <mxGeometry relative="1" as="geometry"/>
                </mxCell>
                <mxCell id="4" value="eax&amp;lt;=5" style="rhombus;whiteSpace=wrap;html=1;rounded=0;" parent="1" vertex="1">
                    <mxGeometry x="210" y="120" width="80" height="80" as="geometry"/>
                </mxCell>
                <mxCell id="5" value="爆炸" style="rounded=0;whiteSpace=wrap;html=1;" parent="1" vertex="1">
                    <mxGeometry y="130" width="120" height="60" as="geometry"/>
                </mxCell>
                <mxCell id="9" value="no" style="text;html=1;align=center;verticalAlign=middle;resizable=0;points=[];autosize=1;strokeColor=none;fillColor=none;rounded=0;" parent="1" vertex="1">
                    <mxGeometry x="170" y="135" width="40" height="30" as="geometry"/>
                </mxCell>
                <mxCell id="14" value="" style="edgeStyle=none;html=1;rounded=0;" parent="1" source="11" target="13" edge="1">
                    <mxGeometry relative="1" as="geometry"/>
                </mxCell>
                <mxCell id="11" value="&lt;div&gt;add&amp;nbsp; &amp;nbsp; $0x1,%esi&lt;/div&gt;" style="whiteSpace=wrap;html=1;align=left;rounded=0;" parent="1" vertex="1">
                    <mxGeometry x="195" y="240" width="110" height="25" as="geometry"/>
                </mxCell>
                <mxCell id="20" value="" style="edgeStyle=none;html=1;rounded=0;" parent="1" source="13" target="19" edge="1">
                    <mxGeometry relative="1" as="geometry">
                        <Array as="points">
                            <mxPoint x="330" y="320"/>
                            <mxPoint x="330" y="205"/>
                        </Array>
                    </mxGeometry>
                </mxCell>
                <mxCell id="45" style="edgeStyle=none;html=1;exitX=0.5;exitY=1;exitDx=0;exitDy=0;entryX=0.48;entryY=-0.007;entryDx=0;entryDy=0;entryPerimeter=0;rounded=0;" parent="1" source="13" target="43" edge="1">
                    <mxGeometry relative="1" as="geometry"/>
                </mxCell>
                <mxCell id="13" value="esi==6" style="rhombus;whiteSpace=wrap;html=1;align=left;rounded=0;" parent="1" vertex="1">
                    <mxGeometry x="226.25" y="295" width="47.5" height="50" as="geometry"/>
                </mxCell>
                <mxCell id="23" value="" style="edgeStyle=none;html=1;rounded=0;" parent="1" source="16" target="22" edge="1">
                    <mxGeometry relative="1" as="geometry"/>
                </mxCell>
                <mxCell id="16" value="&lt;div&gt;&lt;span style=&quot;background-color: initial;&quot;&gt;&amp;nbsp;mov&amp;nbsp; &amp;nbsp; %ebx,%esi&lt;/span&gt;&lt;/div&gt;&lt;div&gt;&amp;nbsp;mov&amp;nbsp; &amp;nbsp; 0xc(%esp,%ebx,4),%ecx&lt;/div&gt;&lt;div&gt;&amp;nbsp;mov&amp;nbsp; &amp;nbsp; $0x1,%eax&lt;/div&gt;&lt;div&gt;&amp;nbsp;mov&amp;nbsp; &amp;nbsp; $0x804c13c,%edx&lt;/div&gt;" style="rounded=0;whiteSpace=wrap;html=1;align=left;" parent="1" vertex="1">
                    <mxGeometry x="160" y="440" width="180" height="80" as="geometry"/>
                </mxCell>
                <mxCell id="18" value="yes" style="text;html=1;align=center;verticalAlign=middle;resizable=0;points=[];autosize=1;strokeColor=none;fillColor=none;rounded=0;" parent="1" vertex="1">
                    <mxGeometry x="240" y="340" width="40" height="30" as="geometry"/>
                </mxCell>
                <mxCell id="83" value="" style="edgeStyle=none;html=1;rounded=0;" parent="1" source="19" target="82" edge="1">
                    <mxGeometry relative="1" as="geometry"/>
                </mxCell>
                <mxCell id="19" value="ebx=esi" style="rounded=0;whiteSpace=wrap;html=1;" parent="1" vertex="1">
                    <mxGeometry x="364" y="190" width="50" height="30" as="geometry"/>
                </mxCell>
                <mxCell id="21" value="no" style="text;html=1;align=center;verticalAlign=middle;resizable=0;points=[];autosize=1;strokeColor=none;fillColor=none;rounded=0;" parent="1" vertex="1">
                    <mxGeometry x="270" y="295" width="40" height="30" as="geometry"/>
                </mxCell>
                <mxCell id="25" value="" style="edgeStyle=none;html=1;rounded=0;" parent="1" source="22" target="24" edge="1">
                    <mxGeometry relative="1" as="geometry"/>
                </mxCell>
                <mxCell id="35" value="" style="edgeStyle=none;html=1;entryX=1;entryY=0.5;entryDx=0;entryDy=0;rounded=0;" parent="1" source="22" target="38" edge="1">
                    <mxGeometry relative="1" as="geometry">
                        <mxPoint x="360.0000000000002" y="610" as="targetPoint"/>
                        <Array as="points">
                            <mxPoint x="380" y="610"/>
                            <mxPoint x="380" y="860"/>
                        </Array>
                    </mxGeometry>
                </mxCell>
                <mxCell id="22" value="ecx&amp;gt;1" style="rhombus;whiteSpace=wrap;html=1;rounded=0;" parent="1" vertex="1">
                    <mxGeometry x="205" y="580" width="90" height="60" as="geometry"/>
                </mxCell>
                <mxCell id="31" value="" style="edgeStyle=none;html=1;rounded=0;" parent="1" source="24" target="30" edge="1">
                    <mxGeometry relative="1" as="geometry"/>
                </mxCell>
                <mxCell id="24" value="&lt;div&gt;&amp;nbsp;mov&amp;nbsp; &amp;nbsp; 0x8(%edx),%edx&lt;/div&gt;&lt;div&gt;&amp;nbsp;add&amp;nbsp; &amp;nbsp; $0x1,%eax&lt;/div&gt;" style="rounded=0;whiteSpace=wrap;html=1;align=left;" parent="1" vertex="1">
                    <mxGeometry x="175" y="670" width="150" height="60" as="geometry"/>
                </mxCell>
                <mxCell id="27" value="yes" style="text;html=1;align=center;verticalAlign=middle;resizable=0;points=[];autosize=1;strokeColor=none;fillColor=none;rounded=0;" parent="1" vertex="1">
                    <mxGeometry x="240" y="635" width="40" height="30" as="geometry"/>
                </mxCell>
                <mxCell id="32" style="edgeStyle=none;html=1;entryX=0;entryY=0.5;entryDx=0;entryDy=0;rounded=0;" parent="1" source="30" target="24" edge="1">
                    <mxGeometry relative="1" as="geometry">
                        <Array as="points">
                            <mxPoint x="130" y="780"/>
                            <mxPoint x="130" y="700"/>
                        </Array>
                    </mxGeometry>
                </mxCell>
                <mxCell id="33" value="no" style="edgeLabel;html=1;align=center;verticalAlign=middle;resizable=0;points=[];rounded=0;" parent="32" vertex="1" connectable="0">
                    <mxGeometry x="-0.5085" y="-3" relative="1" as="geometry">
                        <mxPoint as="offset"/>
                    </mxGeometry>
                </mxCell>
                <mxCell id="39" value="" style="edgeStyle=none;html=1;rounded=0;" parent="1" source="30" target="38" edge="1">
                    <mxGeometry relative="1" as="geometry"/>
                </mxCell>
                <mxCell id="30" value="ecx==eax" style="rhombus;whiteSpace=wrap;html=1;align=left;rounded=0;" parent="1" vertex="1">
                    <mxGeometry x="216.25" y="760" width="73.75" height="40" as="geometry"/>
                </mxCell>
                <mxCell id="36" value="no" style="text;html=1;align=center;verticalAlign=middle;resizable=0;points=[];autosize=1;strokeColor=none;fillColor=none;rounded=0;" parent="1" vertex="1">
                    <mxGeometry x="300" y="585" width="40" height="30" as="geometry"/>
                </mxCell>
                <mxCell id="42" value="" style="edgeStyle=none;html=1;rounded=0;" parent="1" source="38" target="41" edge="1">
                    <mxGeometry relative="1" as="geometry"/>
                </mxCell>
                <mxCell id="38" value="&lt;div&gt;mov&amp;nbsp; &amp;nbsp; %edx,0x24(%esp,%esi,4)&lt;/div&gt;&lt;div&gt;add&amp;nbsp; &amp;nbsp; $0x1,%ebx&lt;/div&gt;" style="whiteSpace=wrap;html=1;align=left;rounded=0;" parent="1" vertex="1">
                    <mxGeometry x="164.69" y="840" width="176.87" height="40" as="geometry"/>
                </mxCell>
                <mxCell id="40" value="yes" style="text;html=1;align=center;verticalAlign=middle;resizable=0;points=[];autosize=1;strokeColor=none;fillColor=none;rounded=0;" parent="1" vertex="1">
                    <mxGeometry x="250" y="805" width="40" height="30" as="geometry"/>
                </mxCell>
                <mxCell id="47" style="edgeStyle=none;html=1;exitX=0;exitY=0.5;exitDx=0;exitDy=0;entryX=0;entryY=0.5;entryDx=0;entryDy=0;rounded=0;" parent="1" source="41" target="16" edge="1">
                    <mxGeometry relative="1" as="geometry">
                        <Array as="points">
                            <mxPoint x="70" y="940"/>
                            <mxPoint x="70" y="480"/>
                        </Array>
                    </mxGeometry>
                </mxCell>
                <mxCell id="50" value="" style="edgeStyle=none;html=1;rounded=0;" parent="1" source="41" target="49" edge="1">
                    <mxGeometry relative="1" as="geometry"/>
                </mxCell>
                <mxCell id="41" value="ebx==6" style="rhombus;whiteSpace=wrap;html=1;align=center;rounded=0;" parent="1" vertex="1">
                    <mxGeometry x="213.13" y="910" width="76.87" height="60" as="geometry"/>
                </mxCell>
                <mxCell id="46" value="" style="edgeStyle=none;html=1;rounded=0;" parent="1" source="43" target="16" edge="1">
                    <mxGeometry relative="1" as="geometry"/>
                </mxCell>
                <mxCell id="43" value="&lt;span style=&quot;text-align: left;&quot;&gt;mov&amp;nbsp; &amp;nbsp; $0x0,%ebx&lt;/span&gt;" style="whiteSpace=wrap;html=1;rounded=0;" parent="1" vertex="1">
                    <mxGeometry x="196.57" y="375" width="110" height="30" as="geometry"/>
                </mxCell>
                <mxCell id="48" value="no" style="text;html=1;align=center;verticalAlign=middle;resizable=0;points=[];autosize=1;strokeColor=none;fillColor=none;rounded=0;" parent="1" vertex="1">
                    <mxGeometry x="110" y="915" width="40" height="30" as="geometry"/>
                </mxCell>
                <mxCell id="53" value="" style="edgeStyle=none;html=1;rounded=0;" parent="1" source="49" target="52" edge="1">
                    <mxGeometry relative="1" as="geometry"/>
                </mxCell>
                <mxCell id="49" value="&lt;div&gt;mov&amp;nbsp; &amp;nbsp; 0x24(%esp),%ebx&lt;/div&gt;&lt;div&gt;lea&amp;nbsp; &amp;nbsp; 0x24(%esp),%eax&lt;/div&gt;&lt;div&gt;lea&amp;nbsp; &amp;nbsp; 0x38(%esp),%esi&lt;/div&gt;&lt;div&gt;mov&amp;nbsp; &amp;nbsp; %ebx,%ecx&lt;/div&gt;" style="whiteSpace=wrap;html=1;rounded=0;align=left;" parent="1" vertex="1">
                    <mxGeometry x="364.01" y="910" width="155.99" height="60" as="geometry"/>
                </mxCell>
                <mxCell id="51" value="yes" style="text;html=1;align=center;verticalAlign=middle;resizable=0;points=[];autosize=1;strokeColor=none;fillColor=none;rounded=0;" parent="1" vertex="1">
                    <mxGeometry x="300" y="915" width="40" height="30" as="geometry"/>
                </mxCell>
                <mxCell id="55" value="" style="edgeStyle=none;html=1;rounded=0;" parent="1" source="52" target="54" edge="1">
                    <mxGeometry relative="1" as="geometry"/>
                </mxCell>
                <mxCell id="52" value="&lt;div&gt;mov&amp;nbsp; &amp;nbsp; 0x4(%eax),%edx&lt;/div&gt;&lt;div&gt;mov&amp;nbsp; &amp;nbsp; %edx,0x8(%ecx)&lt;/div&gt;&lt;div&gt;add&amp;nbsp; &amp;nbsp; $0x4,%eax&lt;/div&gt;&lt;div&gt;mov&amp;nbsp; &amp;nbsp; %edx,%ecx&lt;/div&gt;" style="whiteSpace=wrap;html=1;align=left;rounded=0;" parent="1" vertex="1">
                    <mxGeometry x="570.01" y="905" width="129.99" height="70" as="geometry"/>
                </mxCell>
                <mxCell id="56" style="edgeStyle=none;html=1;exitX=0.5;exitY=1;exitDx=0;exitDy=0;entryX=0.5;entryY=1;entryDx=0;entryDy=0;rounded=0;" parent="1" source="54" target="52" edge="1">
                    <mxGeometry relative="1" as="geometry">
                        <Array as="points">
                            <mxPoint x="805" y="1000"/>
                            <mxPoint x="635" y="1000"/>
                        </Array>
                    </mxGeometry>
                </mxCell>
                <mxCell id="57" value="no" style="edgeLabel;html=1;align=center;verticalAlign=middle;resizable=0;points=[];rounded=0;" parent="56" vertex="1" connectable="0">
                    <mxGeometry x="-0.2781" y="1" relative="1" as="geometry">
                        <mxPoint as="offset"/>
                    </mxGeometry>
                </mxCell>
                <mxCell id="59" value="" style="edgeStyle=none;html=1;rounded=0;" parent="1" source="54" target="58" edge="1">
                    <mxGeometry relative="1" as="geometry"/>
                </mxCell>
                <mxCell id="54" value="eax==esi" style="rhombus;whiteSpace=wrap;html=1;align=center;rounded=0;" parent="1" vertex="1">
                    <mxGeometry x="772" y="915" width="65.01" height="50" as="geometry"/>
                </mxCell>
                <mxCell id="61" value="" style="edgeStyle=none;html=1;rounded=0;" parent="1" source="58" target="60" edge="1">
                    <mxGeometry relative="1" as="geometry"/>
                </mxCell>
                <mxCell id="58" value="&lt;div&gt;movl&amp;nbsp; &amp;nbsp;$0x0,0x8(%edx)&lt;/div&gt;&lt;div&gt;mov&amp;nbsp; &amp;nbsp; $0x5,%esi&lt;/div&gt;" style="whiteSpace=wrap;html=1;rounded=0;align=left;" parent="1" vertex="1">
                    <mxGeometry x="737.89" y="790" width="133.24" height="45" as="geometry"/>
                </mxCell>
                <mxCell id="63" value="" style="edgeStyle=none;html=1;rounded=0;" parent="1" source="60" target="62" edge="1">
                    <mxGeometry relative="1" as="geometry"/>
                </mxCell>
                <mxCell id="60" value="&lt;div&gt;mov&amp;nbsp; &amp;nbsp; 0x8(%ebx),%eax&lt;/div&gt;&lt;div&gt;mov&amp;nbsp; &amp;nbsp; (%eax),%eax&lt;/div&gt;" style="whiteSpace=wrap;html=1;align=left;rounded=0;" parent="1" vertex="1">
                    <mxGeometry x="725.39" y="690" width="158.24" height="60" as="geometry"/>
                </mxCell>
                <mxCell id="65" value="" style="edgeStyle=none;html=1;rounded=0;" parent="1" source="62" target="64" edge="1">
                    <mxGeometry relative="1" as="geometry"/>
                </mxCell>
                <mxCell id="66" value="no" style="edgeLabel;html=1;align=center;verticalAlign=middle;resizable=0;points=[];rounded=0;" parent="65" vertex="1" connectable="0">
                    <mxGeometry x="-0.3562" y="-2" relative="1" as="geometry">
                        <mxPoint as="offset"/>
                    </mxGeometry>
                </mxCell>
                <mxCell id="70" value="" style="edgeStyle=none;html=1;rounded=0;" parent="1" source="62" target="69" edge="1">
                    <mxGeometry relative="1" as="geometry"/>
                </mxCell>
                <mxCell id="62" value="（ebx）&amp;gt;=eax" style="rhombus;whiteSpace=wrap;html=1;align=center;rounded=0;" parent="1" vertex="1">
                    <mxGeometry x="764.51" y="600" width="80" height="65" as="geometry"/>
                </mxCell>
                <mxCell id="64" value="爆炸" style="rounded=0;whiteSpace=wrap;html=1;" parent="1" vertex="1">
                    <mxGeometry x="883.63" y="602.5" width="120" height="60" as="geometry"/>
                </mxCell>
                <mxCell id="72" value="" style="edgeStyle=none;html=1;rounded=0;" parent="1" source="69" target="71" edge="1">
                    <mxGeometry relative="1" as="geometry"/>
                </mxCell>
                <mxCell id="69" value="&lt;div&gt;mov&amp;nbsp; &amp;nbsp; 0x8(%ebx),%ebx&lt;/div&gt;" style="whiteSpace=wrap;html=1;rounded=0;align=left;" parent="1" vertex="1">
                    <mxGeometry x="737.88" y="550" width="133.24" height="30" as="geometry"/>
                </mxCell>
                <mxCell id="73" style="edgeStyle=none;html=1;entryX=1.028;entryY=0.646;entryDx=0;entryDy=0;entryPerimeter=0;rounded=0;" parent="1" source="71" target="60" edge="1">
                    <mxGeometry relative="1" as="geometry">
                        <Array as="points">
                            <mxPoint x="1020" y="500"/>
                            <mxPoint x="1020" y="729"/>
                        </Array>
                    </mxGeometry>
                </mxCell>
                <mxCell id="79" value="" style="edgeStyle=none;html=1;rounded=0;" parent="1" source="71" target="78" edge="1">
                    <mxGeometry relative="1" as="geometry"/>
                </mxCell>
                <mxCell id="71" value="esi--&lt;br&gt;esi==0" style="rhombus;whiteSpace=wrap;html=1;align=center;rounded=0;" parent="1" vertex="1">
                    <mxGeometry x="764.51" y="470" width="80" height="60" as="geometry"/>
                </mxCell>
                <mxCell id="77" value="no" style="text;html=1;align=center;verticalAlign=middle;resizable=0;points=[];autosize=1;strokeColor=none;fillColor=none;rounded=0;" parent="1" vertex="1">
                    <mxGeometry x="920" y="485" width="40" height="30" as="geometry"/>
                </mxCell>
                <mxCell id="78" value="成功退出" style="rounded=0;whiteSpace=wrap;html=1;" parent="1" vertex="1">
                    <mxGeometry x="744.51" y="390" width="120" height="60" as="geometry"/>
                </mxCell>
                <mxCell id="80" value="yes" style="text;html=1;align=center;verticalAlign=middle;resizable=0;points=[];autosize=1;strokeColor=none;fillColor=none;rounded=0;" parent="1" vertex="1">
                    <mxGeometry x="799.51" y="450" width="40" height="30" as="geometry"/>
                </mxCell>
                <mxCell id="81" value="yes" style="text;html=1;align=center;verticalAlign=middle;resizable=0;points=[];autosize=1;strokeColor=none;fillColor=none;rounded=0;" parent="1" vertex="1">
                    <mxGeometry x="790" y="875" width="40" height="30" as="geometry"/>
                </mxCell>
                <mxCell id="85" value="" style="edgeStyle=none;html=1;rounded=0;" parent="1" source="82" target="84" edge="1">
                    <mxGeometry relative="1" as="geometry"/>
                </mxCell>
                <mxCell id="82" value="mov&amp;nbsp; &amp;nbsp; 0xc(%esp,%ebx,4),%eax" style="whiteSpace=wrap;html=1;rounded=0;" parent="1" vertex="1">
                    <mxGeometry x="300" y="270" width="180.99" height="20" as="geometry"/>
                </mxCell>
                <mxCell id="90" value="" style="edgeStyle=none;html=1;rounded=0;startArrow=none;" parent="1" source="91" target="87" edge="1">
                    <mxGeometry relative="1" as="geometry"/>
                </mxCell>
                <mxCell id="93" value="" style="edgeStyle=none;html=1;rounded=0;" parent="1" source="84" target="92" edge="1">
                    <mxGeometry relative="1" as="geometry"/>
                </mxCell>
                <mxCell id="84" value="eax==0x8(%esp,%esi,4)" style="rhombus;whiteSpace=wrap;html=1;rounded=0;" parent="1" vertex="1">
                    <mxGeometry x="320.75" y="310" width="139.5" height="60" as="geometry"/>
                </mxCell>
                <mxCell id="87" value="爆炸" style="rounded=0;whiteSpace=wrap;html=1;" parent="1" vertex="1">
                    <mxGeometry x="527.5" y="380" width="80" height="40" as="geometry"/>
                </mxCell>
                <mxCell id="98" value="" style="edgeStyle=none;html=1;rounded=0;" parent="1" source="92" target="97" edge="1">
                    <mxGeometry relative="1" as="geometry"/>
                </mxCell>
                <mxCell id="92" value="add&amp;nbsp; &amp;nbsp; $0x1,%ebx" style="whiteSpace=wrap;html=1;rounded=0;" parent="1" vertex="1">
                    <mxGeometry x="520" y="325" width="110" height="30" as="geometry"/>
                </mxCell>
                <mxCell id="94" value="no" style="text;html=1;align=center;verticalAlign=middle;resizable=0;points=[];autosize=1;strokeColor=none;fillColor=none;rounded=0;" parent="1" vertex="1">
                    <mxGeometry x="475" y="320" width="40" height="30" as="geometry"/>
                </mxCell>
                <mxCell id="100" style="edgeStyle=none;html=1;exitX=0;exitY=0.5;exitDx=0;exitDy=0;entryX=1;entryY=0.5;entryDx=0;entryDy=0;startArrow=none;rounded=0;" parent="1" source="101" target="82" edge="1">
                    <mxGeometry relative="1" as="geometry"/>
                </mxCell>
                <mxCell id="105" style="edgeStyle=none;html=1;exitX=0.5;exitY=0;exitDx=0;exitDy=0;entryX=1;entryY=0.5;entryDx=0;entryDy=0;rounded=0;" parent="1" source="97" target="2" edge="1">
                    <mxGeometry relative="1" as="geometry">
                        <mxPoint x="340" y="70" as="targetPoint"/>
                        <Array as="points">
                            <mxPoint x="575" y="80"/>
                            <mxPoint x="570" y="75"/>
                        </Array>
                    </mxGeometry>
                </mxCell>
                <mxCell id="97" value="ebx&amp;lt;=5" style="rhombus;whiteSpace=wrap;html=1;rounded=0;" parent="1" vertex="1">
                    <mxGeometry x="542.5" y="260" width="65" height="40" as="geometry"/>
                </mxCell>
                <mxCell id="102" value="" style="edgeStyle=none;html=1;exitX=0;exitY=0.5;exitDx=0;exitDy=0;entryX=1;entryY=0.5;entryDx=0;entryDy=0;endArrow=none;rounded=0;" parent="1" source="97" target="101" edge="1">
                    <mxGeometry relative="1" as="geometry">
                        <mxPoint x="542.5" y="280" as="sourcePoint"/>
                        <mxPoint x="480.99" y="280" as="targetPoint"/>
                    </mxGeometry>
                </mxCell>
                <mxCell id="101" value="yes" style="text;html=1;align=center;verticalAlign=middle;resizable=0;points=[];autosize=1;strokeColor=none;fillColor=none;rounded=0;" parent="1" vertex="1">
                    <mxGeometry x="497.5" y="265" width="40" height="30" as="geometry"/>
                </mxCell>
                <mxCell id="104" value="" style="edgeStyle=none;html=1;rounded=0;" parent="1" source="103" target="2" edge="1">
                    <mxGeometry relative="1" as="geometry"/>
                </mxCell>
                <mxCell id="103" value="esi=0" style="rounded=0;whiteSpace=wrap;html=1;" parent="1" vertex="1">
                    <mxGeometry x="204.69" width="85.31" height="30" as="geometry"/>
                </mxCell>
                <mxCell id="106" value="no" style="text;html=1;align=center;verticalAlign=middle;resizable=0;points=[];autosize=1;strokeColor=none;fillColor=none;rounded=0;" parent="1" vertex="1">
                    <mxGeometry x="542.5" y="200" width="40" height="30" as="geometry"/>
                </mxCell>
                <mxCell id="107" value="yes" style="text;html=1;align=center;verticalAlign=middle;resizable=0;points=[];autosize=1;strokeColor=none;fillColor=none;rounded=0;" parent="1" vertex="1">
                    <mxGeometry x="240" y="200" width="40" height="30" as="geometry"/>
                </mxCell>
                <mxCell id="108" value="表示构造的链表为递减" style="text;html=1;strokeColor=none;fillColor=none;align=center;verticalAlign=middle;whiteSpace=wrap;rounded=0;" parent="1" vertex="1">
                    <mxGeometry x="691" y="610" width="60" height="30" as="geometry"/>
                </mxCell>
                <mxCell id="109" value="根据输入的数据构造链表" style="text;html=1;strokeColor=none;fillColor=none;align=center;verticalAlign=middle;whiteSpace=wrap;rounded=0;" parent="1" vertex="1">
                    <mxGeometry x="400.25" y="685" width="60" height="30" as="geometry"/>
                </mxCell>
                <mxCell id="112" value="" style="edgeStyle=none;html=1;rounded=0;endArrow=none;" parent="1" source="84" target="91" edge="1">
                    <mxGeometry relative="1" as="geometry">
                        <mxPoint x="429.5071090047393" y="353.2227488151659" as="sourcePoint"/>
                        <mxPoint x="527.5" y="386.4406779661017" as="targetPoint"/>
                    </mxGeometry>
                </mxCell>
                <mxCell id="91" value="yes" style="text;html=1;align=center;verticalAlign=middle;resizable=0;points=[];autosize=1;strokeColor=none;fillColor=none;rounded=0;" parent="1" vertex="1">
                    <mxGeometry x="460.25" y="348" width="40" height="30" as="geometry"/>
                </mxCell>
            </root>
        </mxGraphModel>
    </diagram>
</mxfile>